<svg width="206" height="247" viewBox="0 0 206 247" fill="none" xmlns="http://www.w3.org/2000/svg">
<rect width="206" height="247" fill="#FF5924"/>
<path d="M145.456 138.938C143.242 142.167 140.383 145.026 136.97 147.056C135.309 148.07 133.372 148.808 131.435 149.269C130.42 149.454 129.406 149.546 128.391 149.546C127.376 149.454 126.269 149.269 125.255 148.716C124.24 148.162 123.41 147.24 123.041 146.133C122.672 145.026 122.672 143.919 122.949 142.905C123.41 140.783 124.609 139.123 125.808 137.554C128.299 134.418 131.251 131.928 134.479 129.714C136.047 128.607 137.708 127.592 139.46 126.762C141.213 125.932 143.058 125.101 144.995 124.732C147.024 124.363 149.146 124.364 151.175 125.286C152.19 125.747 153.112 126.577 153.574 127.592C154.127 128.699 154.127 129.99 153.666 131.097C153.205 132.204 152.282 133.034 151.36 133.588C150.345 134.141 149.33 134.326 148.316 134.51C147.301 134.603 146.286 134.51 145.272 134.51C144.257 134.51 143.335 134.326 142.32 134.234C140.383 133.865 138.446 133.403 136.601 132.758C134.756 132.112 133.003 131.374 131.251 130.544C129.498 129.806 127.745 128.976 126.085 128.33C124.332 127.684 122.58 127.131 120.735 126.854C119.812 126.67 118.89 126.577 117.967 126.485C117.045 126.485 116.123 126.393 115.2 126.393C113.447 126.485 111.695 127.131 111.049 128.422C110.68 129.068 110.68 129.806 110.865 130.452C111.049 131.097 111.603 131.651 112.341 132.02C113.724 132.758 115.661 132.85 117.414 132.573C119.167 132.296 120.919 131.651 122.58 130.821C124.24 130.083 125.9 129.16 127.469 128.146C130.605 126.116 133.464 123.626 135.678 120.674C136.785 119.198 137.615 117.537 137.8 115.877C137.892 115.047 137.708 114.217 137.339 113.663C136.97 113.017 136.324 112.556 135.494 112.372C134.756 112.095 133.833 112.003 132.911 112.095C131.989 112.095 131.158 112.28 130.236 112.464C128.483 112.925 126.731 113.663 125.162 114.586C121.934 116.431 119.167 119.013 117.045 122.057C116.768 122.426 116.307 122.519 115.938 122.242C115.569 121.965 115.477 121.504 115.754 121.135C117.967 117.906 120.919 115.139 124.332 113.11C126.085 112.095 127.838 111.357 129.775 110.804C130.789 110.527 131.712 110.342 132.726 110.342C133.741 110.25 134.848 110.342 135.863 110.711C136.877 111.08 137.892 111.726 138.538 112.741C139.184 113.755 139.368 114.955 139.276 115.969C139.091 118.183 138.077 120.028 136.877 121.596C134.479 124.825 131.435 127.315 128.207 129.437C126.546 130.544 124.886 131.466 123.133 132.296C121.38 133.127 119.536 133.772 117.506 134.141C116.492 134.326 115.477 134.326 114.462 134.234C113.447 134.141 112.341 133.865 111.418 133.403C110.403 132.942 109.481 132.02 109.112 130.821C108.743 129.714 108.835 128.422 109.389 127.315C109.942 126.208 110.957 125.47 111.879 125.101C112.894 124.64 113.909 124.456 115.016 124.364C116.03 124.271 116.953 124.456 117.967 124.456C118.982 124.548 119.905 124.64 120.919 124.825C122.856 125.101 124.793 125.747 126.546 126.393C128.391 127.039 130.144 127.869 131.896 128.699C133.649 129.529 135.309 130.267 137.154 130.913C138.907 131.559 140.752 132.02 142.504 132.296C143.427 132.389 144.349 132.573 145.272 132.573C146.194 132.573 147.117 132.665 147.947 132.573C149.607 132.389 151.36 131.651 151.913 130.267C152.19 129.621 152.19 128.883 151.821 128.238C151.544 127.592 150.899 127.039 150.161 126.67C148.685 125.932 146.84 125.839 145.087 126.208C143.335 126.577 141.582 127.223 139.922 128.053C138.261 128.883 136.601 129.806 135.125 130.913C132.081 133.034 129.129 135.525 126.823 138.385C125.716 139.86 124.701 141.429 124.332 143.089C124.148 143.919 124.148 144.749 124.425 145.487C124.701 146.225 125.162 146.779 125.808 147.148C127.192 147.886 129.129 147.886 130.882 147.517C132.634 147.148 134.387 146.41 135.955 145.487C139.184 143.642 141.859 140.967 143.888 137.923C144.165 137.554 144.626 137.462 144.995 137.739C145.364 138.016 145.733 138.569 145.456 138.938Z" fill="black"/>
<path d="M89.9241 121.965C87.8025 118.921 85.0352 116.338 81.8066 114.493C80.2385 113.571 78.4858 112.833 76.7332 112.372C75.8108 112.187 74.9806 112.003 74.0581 112.003C73.1357 112.003 72.3055 112.095 71.4753 112.28C70.6451 112.556 69.9994 113.018 69.6304 113.571C69.2614 114.217 69.0769 114.955 69.1692 115.785C69.2614 117.445 70.1839 119.106 71.2908 120.582C73.5047 123.533 76.4565 125.932 79.5005 128.053C81.0687 129.068 82.7291 129.99 84.3894 130.728C86.0498 131.466 87.8025 132.112 89.5551 132.481C91.3077 132.758 93.1526 132.665 94.6285 131.928C95.3665 131.559 95.8277 131.005 96.1044 130.359C96.2889 129.714 96.2889 128.883 95.9199 128.33C95.182 127.039 93.5216 126.393 91.769 126.301C90.9388 126.301 89.9241 126.393 89.0016 126.393C88.0792 126.485 87.1568 126.577 86.2343 126.762C84.3894 127.039 82.6368 127.684 80.8842 128.238C79.1315 128.883 77.3789 129.714 75.7185 130.452C73.9659 131.282 72.2132 132.02 70.3684 132.665C68.5235 133.311 66.5864 133.772 64.6492 134.141C63.6346 134.234 62.7121 134.418 61.6974 134.418C60.6827 134.418 59.7603 134.51 58.6534 134.418C57.6387 134.326 56.5318 134.049 55.6093 133.496C54.6869 132.942 53.7644 132.112 53.3032 131.005C52.842 129.898 52.9343 128.607 53.3955 127.5C53.9489 126.393 54.8714 125.655 55.7938 125.194C57.8232 124.271 59.9448 124.179 61.9742 124.64C64.0035 125.009 65.7562 125.839 67.5088 126.67C69.2614 127.5 70.9218 128.514 72.49 129.621C75.7185 131.835 78.6703 134.418 81.1609 137.462C82.3601 139.03 83.467 140.691 84.0205 142.812C84.2972 143.827 84.205 145.026 83.9282 146.041C83.5593 147.148 82.7291 148.07 81.7144 148.624C80.6997 149.177 79.685 149.362 78.5781 149.454C77.5634 149.546 76.5487 149.454 75.534 149.177C73.5047 148.808 71.6598 147.978 69.9994 146.963C66.5864 144.934 63.7268 142.074 61.5129 138.846C61.2362 138.477 61.3285 138.016 61.6974 137.739C62.0664 137.462 62.5276 137.554 62.8044 137.923C64.926 140.967 67.601 143.643 70.7373 145.487C72.3055 146.41 74.0581 147.148 75.8108 147.517C77.5634 147.886 79.5005 147.886 80.8842 147.148C81.6221 146.779 82.0833 146.225 82.2678 145.487C82.5446 144.749 82.5446 143.919 82.3601 143.089C81.9911 141.429 80.9764 139.861 79.8695 138.385C77.5634 135.525 74.7038 133.034 71.5675 130.913C69.9994 129.898 68.4312 128.883 66.7708 128.053C65.1105 127.223 63.3578 126.577 61.6052 126.208C60.1293 126.024 58.1922 126.116 56.8085 126.762C56.0705 127.131 55.5171 127.684 55.1481 128.33C54.8714 128.976 54.7791 129.714 55.0559 130.359C55.6093 131.743 57.2697 132.481 59.0224 132.665C59.8526 132.758 60.775 132.665 61.6974 132.665C62.6199 132.665 63.5423 132.481 64.4647 132.389C66.3096 132.02 68.0623 131.651 69.8149 131.005C71.5675 130.359 73.3202 129.621 75.0728 128.791C76.8254 128.053 78.5781 127.223 80.423 126.485C82.2678 125.839 84.1127 125.194 86.0498 124.917C86.9723 124.732 87.987 124.64 89.0016 124.548C90.0163 124.548 90.9388 124.456 91.9534 124.456C92.9681 124.548 94.0751 124.732 95.0897 125.194C96.1044 125.655 97.0269 126.393 97.5803 127.408C98.1338 128.514 98.226 129.714 97.8571 130.913C97.4881 132.112 96.5657 132.942 95.551 133.496C94.5363 134.049 93.5216 134.234 92.5069 134.326C91.4922 134.418 90.3853 134.418 89.4629 134.234C87.4335 133.865 85.5886 133.219 83.836 132.389C82.0833 131.559 80.3307 130.636 78.7626 129.529C75.534 127.408 72.49 124.825 70.0916 121.688C68.8925 120.12 67.8778 118.275 67.6933 116.062C67.601 114.955 67.7855 113.848 68.4312 112.833C69.0769 111.818 70.0916 111.173 71.1063 110.896C72.121 110.527 73.2279 110.435 74.2426 110.527C75.2573 110.527 76.272 110.711 77.1944 110.988C79.1315 111.449 80.9764 112.28 82.6368 113.294C86.0498 115.231 89.0016 117.999 91.2155 121.319C91.4922 121.688 91.4 122.15 91.031 122.426C90.662 122.426 90.2008 122.334 89.9241 121.965Z" fill="black"/>
<path d="M113.355 87.5582C116.399 89.9565 119.074 92.9083 120.734 96.4136C121.564 98.1662 122.118 100.103 122.302 102.133C122.394 103.147 122.394 104.162 122.21 105.177C122.025 106.191 121.749 107.206 121.103 108.129C120.55 109.051 119.535 109.789 118.428 110.066C117.321 110.342 116.214 110.342 115.199 110.066C113.17 109.512 111.51 108.313 110.034 107.022C107.082 104.439 104.776 101.303 102.839 98.074C101.824 96.4136 100.994 94.7532 100.256 92.9083C99.518 91.1557 98.8722 89.3108 98.6878 87.2814C98.5955 86.2667 98.5955 85.2521 98.6878 84.2374C98.8722 83.2227 99.149 82.208 99.7947 81.2856C100.348 80.3631 101.363 79.5329 102.47 79.2562C103.484 78.795 104.776 78.9795 105.791 79.6252C106.805 80.2709 107.451 81.1933 107.912 82.208C108.373 83.2227 108.558 84.2374 108.558 85.2521C108.65 86.2667 108.558 87.1892 108.466 88.2039C108.466 89.1263 108.373 90.0487 108.189 90.9712C107.912 92.9083 107.359 94.7532 106.713 96.5981C106.067 98.443 105.329 100.196 104.499 101.856C103.761 103.609 102.931 105.269 102.285 107.022C101.64 108.774 101.086 110.527 100.809 112.28C100.625 113.202 100.533 114.124 100.44 114.955C100.44 115.877 100.348 116.799 100.348 117.63C100.44 119.29 100.994 121.043 102.285 121.781C103.484 122.611 105.145 122.057 105.975 120.766C106.805 119.475 106.99 117.63 106.805 115.877C106.621 114.124 106.067 112.372 105.329 110.711C104.684 109.051 103.761 107.391 102.839 105.822C100.994 102.686 98.6878 99.6421 96.0127 97.2438C94.629 96.0446 93.1531 95.0299 91.585 94.5687C90.847 94.3842 90.0168 94.292 89.2789 94.5687C88.5409 94.7532 87.8952 95.2144 87.5262 95.8601C86.6038 97.1515 86.4193 98.9964 86.5116 100.749C86.6038 102.502 87.1573 104.254 87.8952 105.915C89.4634 109.143 91.8617 112.003 94.8135 114.217C95.1825 114.493 95.1825 114.955 94.998 115.324C94.7213 115.693 94.26 115.693 93.8911 115.508C90.847 113.11 88.1719 110.158 86.5116 106.653C85.6814 104.9 85.1279 102.963 84.9434 100.934C84.8512 99.9189 84.8512 98.9042 85.0356 97.8895C85.2201 96.8748 85.4969 95.8601 86.1426 94.9377C86.696 94.0152 87.7107 93.2773 88.8177 93.0006C89.9246 92.7238 91.0315 92.7238 92.0462 93.0006C94.0756 93.554 95.7359 94.7532 97.2119 96.0446C100.164 98.6274 102.47 101.764 104.407 104.992C105.422 106.653 106.252 108.313 106.99 110.158C107.728 111.911 108.373 113.755 108.558 115.785C108.65 116.799 108.65 117.814 108.558 118.829C108.373 119.844 108.097 120.858 107.451 121.781C106.805 122.703 105.883 123.533 104.776 123.81C103.669 124.179 102.378 123.995 101.363 123.349C100.348 122.703 99.6102 121.781 99.2412 120.858C98.78 119.844 98.5955 118.829 98.5955 117.814C98.5955 116.799 98.6878 115.877 98.6878 114.862C98.78 113.94 98.8722 112.925 99.0567 112.003C99.3335 110.066 99.9792 108.221 100.625 106.376C101.271 104.531 102.101 102.871 102.839 101.118C103.577 99.3654 104.407 97.705 105.053 95.9524C105.698 94.1997 106.16 92.4471 106.528 90.6945C106.713 89.772 106.805 88.8496 106.897 88.0194C106.897 87.0969 106.99 86.1745 106.99 85.3443C106.897 83.6839 106.344 81.9313 105.053 81.1933C103.853 80.3631 102.193 80.9166 101.363 82.208C100.533 83.4994 100.348 85.3443 100.533 87.0969C100.717 88.8496 101.271 90.6022 102.009 92.2626C102.654 93.923 103.577 95.5834 104.499 97.1515C106.344 100.288 108.65 103.332 111.325 105.73C112.709 106.929 114.185 107.944 115.845 108.405C116.583 108.59 117.413 108.682 118.151 108.405C118.889 108.221 119.535 107.76 119.904 107.114C120.826 105.822 121.011 103.978 120.919 102.225C120.826 100.472 120.273 98.7197 119.535 97.0593C117.967 93.8308 115.568 90.9712 112.617 88.7573C112.248 88.4806 112.248 88.0194 112.432 87.6504C112.524 87.3737 112.986 87.2814 113.355 87.5582Z" fill="black"/>
<path d="M95.0888 145.949C92.0448 147.978 89.4619 150.561 87.7093 153.697C86.8791 155.265 86.2334 156.926 85.9566 158.678C85.7722 160.339 86.1411 162.091 87.4326 163.014C88.0783 163.475 88.8162 163.659 89.6464 163.659C90.4766 163.659 91.3068 163.567 92.0448 163.29C93.6129 162.737 95.181 161.63 96.4725 160.431C99.1475 158.033 101.454 155.081 103.299 151.944C104.221 150.376 105.051 148.716 105.697 147.056C106.343 145.395 106.804 143.642 106.896 141.89C106.896 140.229 106.435 138.385 105.328 137.462C104.774 137.001 104.036 136.724 103.391 136.816C102.745 136.909 102.099 137.278 101.546 137.831C101.085 138.385 100.716 139.123 100.531 139.953C100.347 140.783 100.347 141.613 100.347 142.536L100.439 143.919C100.439 144.38 100.531 144.842 100.623 145.303C100.716 146.225 100.9 147.056 101.085 147.978C101.915 151.483 103.483 154.896 104.959 158.309C106.527 161.722 107.911 165.412 108.372 169.194L108.556 170.67C108.556 171.131 108.556 171.592 108.649 172.146C108.649 173.068 108.741 174.083 108.556 175.098C108.372 176.112 108.095 177.127 107.449 178.049C106.804 178.972 105.881 179.71 104.682 180.079C103.483 180.356 102.284 180.171 101.269 179.525C100.254 178.88 99.6088 177.957 99.2398 176.943C98.4096 175.005 98.5018 172.884 98.8708 170.947C99.2398 169.01 99.8855 167.165 100.716 165.412C101.454 163.659 102.376 161.999 103.391 160.339C105.42 157.11 107.818 154.066 110.77 151.575C112.338 150.376 113.999 149.269 116.12 148.9C117.227 148.716 118.334 148.9 119.349 149.362C120.364 149.823 121.194 150.561 121.84 151.391C123.131 153.051 123.5 155.357 123.223 157.295C122.946 159.324 122.209 161.169 121.286 162.829C119.349 166.242 116.766 169.102 113.722 171.5C113.353 171.777 112.892 171.685 112.615 171.408C112.338 171.039 112.431 170.578 112.707 170.301C115.567 167.995 118.058 165.32 119.81 162.091C120.64 160.523 121.378 158.863 121.563 157.11C121.84 155.45 121.471 153.697 120.456 152.406C119.533 151.114 117.873 150.376 116.305 150.561C114.737 150.838 113.169 151.76 111.785 152.867C109.018 155.173 106.712 158.125 104.774 161.169C103.852 162.737 102.93 164.305 102.192 166.058C101.454 167.718 100.808 169.471 100.531 171.223C100.347 172.054 100.254 172.976 100.347 173.806C100.439 174.636 100.531 175.467 100.9 176.205C101.177 176.943 101.73 177.588 102.284 177.957C102.837 178.326 103.667 178.418 104.313 178.326C105.697 177.957 106.619 176.481 106.804 174.821C106.988 173.991 106.896 173.161 106.896 172.238C106.896 171.777 106.896 171.316 106.804 170.854L106.527 169.379C106.066 165.781 104.774 162.368 103.206 158.955C101.73 155.542 100.07 152.037 99.2398 148.347C99.0553 147.424 98.8708 146.502 98.7786 145.487C98.6863 145.026 98.6863 144.565 98.5941 144.011L98.5018 142.536C98.4096 140.598 98.6863 138.385 100.07 136.632C100.808 135.802 101.823 135.156 103.022 134.972C104.221 134.879 105.42 135.341 106.25 136.078C107.081 136.816 107.634 137.831 108.003 138.846C108.372 139.86 108.464 140.875 108.464 141.89C108.464 143.919 107.818 145.856 107.173 147.609C106.619 149.454 105.697 151.114 104.774 152.775C102.837 156.003 100.439 159.139 97.5794 161.63C96.1035 162.921 94.5353 164.028 92.5982 164.766C90.6611 165.412 88.355 165.597 86.5101 164.213C85.5877 163.567 84.942 162.553 84.6652 161.538C84.3885 160.523 84.2963 159.416 84.4807 158.402C84.6652 156.372 85.4954 154.527 86.4179 152.867C88.355 149.454 91.1223 146.687 94.3509 144.565C94.7198 144.288 95.181 144.473 95.4578 144.749C95.55 145.211 95.4578 145.672 95.0888 145.949Z" fill="black"/>
<path d="M88.624 225.934C98.6956 225.934 107.29 219.796 107.29 209.434C107.29 199.138 98.6956 193 88.624 193C78.4852 193 69.8908 199.138 69.8908 209.434C69.8908 219.796 78.4852 225.934 88.624 225.934ZM88.624 224.746C78.3509 224.746 74.8594 218.212 74.8594 209.83C74.8594 200.722 78.3509 194.188 88.624 194.188C98.8299 194.188 102.321 200.722 102.321 209.83C102.321 218.212 98.8299 224.746 88.624 224.746ZM162.818 225.934C169.398 225.934 179 223.294 179 215.638C179 210.82 175.374 208.378 169.197 207.586C167.787 207.388 165.101 206.992 163.087 206.728C159.797 206.266 154.09 205.21 154.09 200.59C154.09 195.706 158.454 194.188 163.221 194.188C168.123 194.188 175.777 195.706 176.046 201.316H176.314L178.06 196.036C174.636 194.056 169.868 193 164.631 193C155.97 193 150.061 196.366 150.061 202.636C150.061 207.652 155.701 209.632 159.461 210.226C161.677 210.556 164.363 210.952 165.571 211.084C171.883 211.81 175.038 213.394 175.038 217.552C175.038 222.898 168.996 224.746 163.423 224.746C157.245 224.746 149.457 222.304 149.859 216.1L149.524 216.034L147.577 222.238C147.577 222.304 147.711 222.37 148.047 222.568C151.538 224.614 157.178 225.934 162.818 225.934ZM29 225.142H38.333V224.944C35.6473 224.284 35.7816 220.522 35.7816 216.562V209.698H58.7449V216.562C58.7449 220.522 58.8791 224.284 56.1934 224.944V225.142H65.5264V224.944C62.9749 224.284 62.7735 220.192 62.7735 216.562V202.372C62.7735 198.742 62.9749 194.65 65.5264 193.99V193.792H56.1934V193.99C58.8791 194.65 58.7449 198.412 58.7449 202.372V208.378H35.7816V202.372C35.7816 198.412 35.6473 194.65 38.333 193.99V193.792H29V193.99C31.5515 194.65 31.7529 198.742 31.7529 202.372V216.562C31.7529 220.192 31.5515 224.284 29 224.944V225.142ZM108.297 194.056C109.909 194.584 111.117 196.762 112.863 199.864C117.765 208.576 122.8 217.288 127.702 226C132.738 217.288 137.773 208.576 142.809 199.864C144.555 196.828 145.764 194.584 147.375 194.056V193.792H139.519V193.99C142.071 194.782 142.675 197.752 140.996 200.524C136.632 207.784 132.268 215.11 127.903 222.37L129.716 220.918C125.419 213.592 121.122 206.266 116.825 198.94C115.817 197.092 115.347 194.584 117.765 193.99V193.792H108.297V194.056Z" fill="black"/>
</svg>
